<?xml version="1.0" encoding="UTF-8" standalone="no"?>
<svg
   xmlns:dc="http://purl.org/dc/elements/1.1/"
   xmlns:cc="http://creativecommons.org/ns#"
   xmlns:rdf="http://www.w3.org/1999/02/22-rdf-syntax-ns#"
   xmlns:svg="http://www.w3.org/2000/svg"
   xmlns="http://www.w3.org/2000/svg"
   xmlns:sodipodi="http://sodipodi.sourceforge.net/DTD/sodipodi-0.dtd"
   xmlns:inkscape="http://www.inkscape.org/namespaces/inkscape"
   width="197.67166mm"
   height="34.224781mm"
   viewBox="0 0 197.67166 34.224781"
   version="1.1"
   id="svg8"
   inkscape:version="1.0.2 (e86c8708, 2021-01-15)"
   sodipodi:docname="LogoSrc.svg"
   inkscape:export-filename="/Users/henryschreiner/git/scikit-hep/vector/docs/images/LogoSrc.png"
   inkscape:export-xdpi="111.27746"
   inkscape:export-ydpi="111.27746">
  <defs
     id="defs2" />
  <sodipodi:namedview
     id="base"
     pagecolor="#ffffff"
     bordercolor="#666666"
     borderopacity="1.0"
     inkscape:pageopacity="0.0"
     inkscape:pageshadow="2"
     inkscape:zoom="1.2814864"
     inkscape:cx="447.09439"
     inkscape:cy="149.14009"
     inkscape:document-units="mm"
     inkscape:current-layer="layer1"
     inkscape:document-rotation="0"
     showgrid="false"
     showguides="true"
     inkscape:guide-bbox="true"
     inkscape:snap-global="true"
     inkscape:window-width="2035"
     inkscape:window-height="1174"
     inkscape:window-x="83"
     inkscape:window-y="65"
     inkscape:window-maximized="0"
     fit-margin-top="0"
     fit-margin-left="0"
     fit-margin-right="0"
     fit-margin-bottom="0">
    <sodipodi:guide
       position="172.16319,0.79892708"
       orientation="-0.9842554,0.17675209"
       id="guide878" />
    <sodipodi:guide
       position="185.96281,19.588987"
       orientation="0,-1"
       id="guide883" />
    <sodipodi:guide
       position="39.907641,10.235547"
       orientation="-0.98489931,0.17312814"
       id="guide885" />
  </sodipodi:namedview>
  <metadata
     id="metadata5">
    <rdf:RDF>
      <cc:Work
         rdf:about="">
        <dc:format>image/svg+xml</dc:format>
        <dc:type
           rdf:resource="http://purl.org/dc/dcmitype/StillImage" />
        <dc:title />
      </cc:Work>
    </rdf:RDF>
  </metadata>
  <g
     inkscape:label="Layer 1"
     inkscape:groupmode="layer"
     id="layer1"
     transform="translate(-7.011975,-108.12622)">
    <path
       id="path876"
       style="fill:#808080;fill-opacity:1;stroke-width:3.77953"
       d="m 26.501953,408.66602 2.207031,37.52929 0.351563,0.56836 0.351562,0.57031 H 48 66.587891 l 0.341797,-0.55273 0.339843,-0.55078 -3.347656,-37.56445 z m 83.537107,0 -15.759763,36.97656 -0.423828,1.6914 h 18.953121 18.95313 L 148,409.9668 v -0.65039 -0.65039 h -18.98047 z m 44.70703,0 -0.51367,0.83203 -0.51367,0.83007 -6.18359,36.31836 0.34375,0.34375 0.34375,0.34375 h 53.09961 53.09961 l 6.9121,-37.25781 v -0.70508 -0.70507 h -53.29492 z m 144.65235,0 -3.86524,0.99609 -3.86718,0.99414 -4.66993,2.29492 -4.66992,2.29297 -3.79101,3.70313 -3.79102,3.70117 -1.92187,2.84179 -1.91993,2.84375 -1.36718,3.66602 -1.36914,3.66602 -0.72461,3.33398 -0.72461,3.33398 -0.0957,2 -0.0957,2 0.0703,0.5 0.0703,0.5 h 58.52929 58.5293 l 6.94141,-36.59179 v -1.03711 -1.03906 h -45.6328 z m 103.34765,0 -0.51367,0.83203 -0.51367,0.83007 -6.18359,36.31836 0.34375,0.34375 0.34375,0.34375 h 58.41796 58.41797 L 520,409.70508 v -1.03906 h -58.62695 z m 155.31836,0 -3.86523,0.99609 -3.86524,0.99414 -4.67187,2.29492 -4.66992,2.29297 -3.79102,3.70313 -3.79101,3.70117 -1.92188,2.84179 -1.91992,2.84375 -1.36719,3.66602 -1.36719,3.66602 -0.7246,3.33398 -0.72461,3.33398 -0.0977,2 -0.0957,2 0.0703,0.5 0.0723,0.5 h 58.5293 58.5293 l 0.93945,-4.16796 0.94141,-4.16602 -0.0488,-6.05273 -0.0469,-6.05274 -2.10156,-4.40039 -2.09961,-4.40234 -2.92773,-2.57618 -2.92774,-2.57617 -2.89453,-1.39648 -2.89258,-1.39453 -2.74414,-0.74024 -2.74414,-0.74218 h -32.39062 z m 103.34766,0 -0.51367,0.83203 -6.35352,37.49218 0.34375,0.34375 h 38.05274 l 4.36914,-24.33593 54.46369,40.98436 -100.69221,10e-6 -9.74805,56.6836 -0.71289,4.16796 -0.71093,4.16602 -0.62305,2.79492 -0.62109,2.79492 v 1.70508 h 0.004 V 538 h 37.36133 l 0.58203,-1.5 0.58399,-1.5 0.7832,-4.66602 0.78515,-4.66796 0.65626,-3.66602 6.0957,-33.33398 h 20.30469 20.30468 l -6.02929,35 -0.80078,4.66796 -0.80079,4.66602 -0.51367,2.12109 -0.51367,2.12305 0.37695,0.37695 0.37891,0.37891 h 37.68164 l 0.75391,-3.83398 7.63476,-41.16602 0.0195,-5.66602 0.0195,-5.66796 -1.41406,-2.39063 -1.41211,-2.39062 -1.13867,-1.73633 -1.13867,-1.73828 3.99414,-4.29297 3.99219,-4.29102 1.05859,-2.04687 1.05859,-2.04688 4.27344,-21.73242 -0.0488,-6.05273 -0.0488,-6.05274 -2.09961,-4.40039 -2.10157,-4.40234 -2.92578,-2.57618 -2.92773,-2.57617 -2.89453,-1.39453 -2.89453,-1.39453 -2.74414,-0.74219 -2.74219,-0.74218 H 706.79492 Z M 30.011719,463.98242 35.052734,536.5 35.359375,538 h 57.244141 l 0.955078,-2.16602 0.953125,-2.16796 1.410156,-3.15821 1.412109,-3.16015 v -0.32422 -0.32422 L 123.6543,463.98242 H 85.925781 L 72,497.33398 h -0.591797 -0.59375 l -2.742187,-33.35156 z m 114.470701,0 L 132,536.29492 V 538 h 53.24219 53.24219 l 6.8496,-37.7168 v -0.94922 h -68 l 2.5673,-14.60497 68.00763,-0.34375 3.38601,-20.40284 z m 118.72656,0 -7.49804,41.01758 0.004,7.66602 0.002,7.66796 1.60937,3.33204 1.60938,3.33398 4.03125,4.03516 4.0332,4.03711 4.33398,1.41015 4.33204,1.41016 46.11914,0.0547 46.11914,0.0527 6.76172,-35.92383 v -1.37109 -1.3711 H 335.33398 296 l 5.34961,-35.35156 z m 168.82032,0 -11.97266,68.94531 -0.68359,3.92969 0.35937,0.58203 0.35938,0.58008 18.78515,-0.17578 18.78321,-0.17773 0.53515,-3 12.28125,-70.6836 z m 89.83789,0 -5.98633,35.01758 -0.75195,3 -0.75196,3 0.004,7.66602 0.002,7.66796 1.60938,3.33204 1.60937,3.33398 4.03321,4.03516 4.03125,4.03711 4.33398,1.41015 4.33398,1.41016 66,0.0605 3.66602,-0.88085 3.66602,-0.88086 3.05664,-1.39453 3.05468,-1.39454 4.08204,-3.06836 4.08203,-3.07031 2.77343,-3.46484 2.77344,-3.46485 L 629,517 l 1.51172,-3.33203 0.67578,-2 0.67578,-2 0.78711,-5 0.78516,-5 L 640,464.17969 v -0.19727 H 601.13672 L 594.95117,499 l -20.14258,0.17578 -20.14257,0.17774 5.48437,-35.3711 z"
       transform="scale(0.26458333)"
       sodipodi:nodetypes="ccccccccccccccccccccccccccccccccccccccccccccccccccccccccccccccccccccccccccccccccccccccccccccccccccccccccccccccccccccccccccccccccccccccccccccccccccccccccccccccccccccccccccccccccccccccccccccccccccccccccccccccccccccccccccccccccccccccccccccccccccccccccccccc" />
  </g>
</svg>
